<?xml version="1.0" encoding="UTF-8"?>
<svg version="1.1" xmlns="http://www.w3.org/2000/svg" width="779" height="701">
<!--Dove without eye including right-leg of M-->
<path d="M0 0 C3.6498264 0.12358329 5.94480318 2.36231464 8.6875 4.5625 
                C13.29991436 7.98046443 17.94834395 10.70967678 23.125 13.1875 
                C23.74979248 13.4956665 24.37458496 13.80383301 25.01831055 14.12133789 
                C42.29010162 22.12244371 61.73240229 24.63209885 80.27294922 28.046875 
                C115.90623161 34.64332281 150.23633096 43.42135429 172.75 74.1875 
                C186.14225064 94.37187776 191.23961147 118.28582718 186.47827148 142.11010742 
                C181.38450461 164.82297536 167.87712326 181.45293389 148.5078125 193.796875 
                C147.33906607 194.5320843 146.16984591 195.26654144 145 196 
                C137.09766498 201.04404363 129.34138684 206.512101 122.80078125 213.2734375 
                C121 215 121 215 119 215 
                C118.32024757 216.32670979 117.65647651 217.66162008 117 219 
                C115.78735635 220.42840683 114.53325476 221.82217662 113.25 223.1875 
                C109.76179579 227.00549806 106.9229777 230.94150292 104.2265625 235.34765625 
                C103.82179688 235.89292969 103.41703125 236.43820312 103 237 
                C102.34 237 101.68 237 101 237 
                C101.69980907 228.57186463 108.45302759 221.07460204 114.3984375 215.53515625 
                C116.21137843 213.87013446 116.21137843 213.87013446 118.25 211.125 
                C125.63757086 202.11168539 136.23242562 196.09989719 146 190 
                C164.60736392 178.36479292 176.29734736 163.49256111 181.421875 141.921875 
                C185.70442206 120.27765068 182.13242652 98.31873001 170.1875 79.6875 
                C146.62411983 46.2948241 111.23701238 38.66099048 73.24316406 31.60888672 
                C24.26906458 22.4142613 24.26906458 22.4142613 5 8 
                C10.02986932 24.1518164 18.35657262 35.17539301 33.23828125 43.08984375 
                C48.595686 50.97480444 64.9511038 54.48861922 81.86669922 57.51245117 
                C82.57068848 57.67334229 83.27467773 57.8342334 84 58 
                C84 58.33 84 58.66 84 59 
                C77.17195066 59.29352925 70.77920931 58.55876168 64.0625 57.375 
                C63.0626709 57.1996875 62.0628418 57.024375 61.03271484 56.84375 
                C49.62403704 54.72289441 38.58949351 51.50883297 28.3125 46.0625 
                C27.219375 45.711875 26.12625 45.36125 25 45 
                C24.25867586 51.24830347 26.42778283 55.88491055 30.08203125 60.8671875 
                C42.31074655 74.46571816 61.83164237 77.30205896 78.90527344 80.55322266 
                C79.82083008 80.72772949 80.73638672 80.90223633 81.6796875 81.08203125 
                C82.50968262 81.23518799 83.33967773 81.38834473 84.19482422 81.54614258 
                C84.79053223 81.69591553 85.38624023 81.84568848 86 82 
                C86 82.33 86 82.66 86 83 C83.6327935 82.93156565 81.29789454 82.79794247 78.9375 82.625 
                C78.22537354 82.58117187 77.51324707 82.53734375 76.77954102 82.4921875 
                C73.02214426 82.25385906 69.29814278 81.93205466 65.5625 81.4609375 
                C64.52234741 81.34564697 64.52234741 81.34564697 63.46118164 81.22802734 
                C61.51175454 81.00836696 59.56623478 80.75483936 57.62109375 80.5 
                C56.75613281 80.665 55.89117187 80.83 55 81 
                C55.01929436 86.45387275 56.43547301 89.92625487 60 94 
                C70.32481874 102.25985499 83.46526062 106.3776 96.15625 109.45703125 
                C96.7646875 109.63621094 97.373125 109.81539063 98 110 
                C98 110.33 98 110.66 98 111 
                C82.16363316 111.41990367 66.01659696 105.04643778 54.40625 94.421875 
                C52.35383069 92.34665103 51.08224498 90.73744319 50 88 
                C50.17612657 86.51943602 50.364796 85.04033741 50.5625 83.5625 
                C50.78412749 81.19474336 50.78412749 81.19474336 50 79 
                C47.21967616 77.0213362 44.38145371 75.79759151 41.24609375 74.45703125 
                C32.6077791 70.57966499 25.57574455 63.80805649 21.125 55.5 
                C19.61439918 50.80035302 19.47769855 46.95863044 20.75 42.1875 
                C20.87375 41.1046875 20.87375 41.1046875 21 40 
                C19.67567327 39.31561639 18.34022876 38.65269373 17 38 
                C7.93581411 30.00108957 1.294512 17.51315794 -0.3359375 5.53125 
                C-0.375 3.5 -0.375 3.5 0 0 Z " fill="#ffffff" transform="translate(337,130)"/>
<path d="M0 0 C4.03089896 2.92553361 7.49908788 6.192689 10.62109375 10.08203125 
                C13.90651861 12.81718791 17.12241684 13.3118807 21.25 14.125 
                C23.91480659 14.65288989 26.39188557 15.26490221 29 16.0625 
                C29 17.0525 29 18.0425 29 19.0625 
                C26.17578125 19.984375 26.17578125 19.984375 22.3125 20.8125 
                C6.99076145 24.49051801 -5.69973518 33.02495092 -14.40625 46.26953125 
                C-22.42581654 60.3234285 -26.16132844 75.36188542 -26.13803101 91.44717407 
                C-26.14226293 92.65542534 -26.14226293 92.65542534 -26.14658034 93.88808572 
                C-26.15486286 96.56683927 -26.15625911 99.24555114 -26.15771484 101.92431641 
                C-26.16238781 103.85349645 -26.16753216 105.78267539 -26.17311096 107.71185303 
                C-26.18436055 111.85764079 -26.19280987 116.0034215 -26.19923019 120.14921951 
                C-26.2099492 126.71509697 -26.23020493 133.28092362 -26.25234985 139.84677124 
                C-26.31414144 158.5148485 -26.36823739 177.18292243 -26.40136719 195.85107422 
                C-26.41975643 206.16813187 -26.44874513 216.48510395 -26.4893719 226.80209863 
                C-26.51036744 232.25409026 -26.5258886 237.7059744 -26.52817917 243.15800858 
                C-26.53033854 248.29138768 -26.54633847 253.42454292 -26.57256889 258.5578537 
                C-26.5797141 260.43220914 -26.58188632 262.30659185 -26.57846642 264.18095779 
                C-26.55525794 279.33078397 -26.56568475 294.20740543 -37.6640625 305.80078125 
                C-48.56330082 315.82907587 -61.34144868 316.37320015 -75.5390625 316.36328125 
                C-76.91482674 316.36717565 -78.29058979 316.37151184 -79.66635132 316.37626648 
                C-82.52549173 316.38367085 -85.38450843 316.38347536 -88.24365234 316.37817383 
                C-91.91820477 316.37232001 -95.59226275 316.38947789 -99.26673317 316.4125185 
                C-102.09588604 316.42717915 -104.92491669 316.42813929 -107.7541008 316.42500877 
                C-109.11057914 316.4255237 -110.46706402 316.43079332 -111.8235054 316.44082069 
                C-113.70472666 316.45304687 -115.58604914 316.44450654 -117.46728516 316.43481445 
                C-119.07417709 316.43575859 -119.07417709 316.43575859 -120.71353149 316.4367218 
                C-121.8453334 316.25148201 -121.8453334 316.25148201 -123 316.0625 
                C-123 315.0725 -123 314.0825 -123 313.0625 
                C-120.10546875 312.47265625 -120.10546875 312.47265625 -116.1875 312.125 
                C-105.98390077 311.0112226 -96.49774618 308.50707068 -89 301.0625 
                C-82.14635648 291.8151959 -81.85604893 282.12810254 -81.95336914 271.08129883 
                C-81.96614043 268.58974871 -81.97858129 266.09819687 -81.99073792 263.60664368 
                C-82.00261233 261.63070441 -82.00261233 261.63070441 -82.01472664 259.61484718 
                C-82.03755425 255.4821271 -82.04312652 251.34949742 -82.04405212 247.21672058 
                C-82.04432477 246.16767531 -82.04432477 246.16767531 -82.04460293 245.0974372 
                C-82.04505251 242.21475986 -82.04497077 239.33208268 -82.0447675 236.44940531 
                C-82.04503193 228.28877081 -82.06172126 220.12890392 -82.12670898 211.96850586 
                C-82.17832067 205.47292085 -82.1942683 198.97832753 -82.16924757 192.48257083 
                C-82.15736015 189.05145585 -82.16292296 185.62245947 -82.21193123 182.19162941 
                C-82.4966594 158.51742456 -82.4966594 158.51742456 -77.49127865 152.40782452 
                C-75.48380528 150.40493315 -73.2861693 148.73395969 -71 147.0625 
                C-69.25379951 145.09561672 -69.25379951 145.09561672 -67.93359375 143.234375 
                C-67.5156958 142.67041016 -67.09779785 142.10644531 -66.66723633 141.52539062 
                C-66.26142334 140.96013672 -65.85561035 140.39488281 -65.4375 139.8125 
                C-64.75627075 138.87180664 -64.75627075 138.87180664 -64.0612793 137.91210938 
                C-59.28016745 131.20869483 -55.05950617 124.21995013 -51 117.0625 
                C-50.34515625 115.92941406 -49.6903125 114.79632813 -49.015625 113.62890625 
                C-40.70738935 98.90802342 -34.45544005 83.02850533 -29.375 66.9375 
                C-23.59587186 48.80037081 -13.91890895 33.38649733 3.28125 24.3359375 
                C7.87520869 22.11271437 11.80578309 20.22779783 16.89453125 19.5234375 
                C17.91933594 19.37132812 18.94414063 19.21921875 20 19.0625 
                C20 18.4025 20 17.7425 20 17.0625 
                C18.948125 16.918125 17.89625 16.77375 16.8125 16.625 
                C11.28838393 15.80996648 8.61187977 13.760829 4.9375 9.75 
                C-2.52860671 2.05567168 -13.37580462 -1.84440494 -23.9375 -2.25 
                C-32.53167222 -2.02626198 -39.90634837 0.93115568 -46 7.0625 
                C-48.60388641 10.57335808 -50.79003608 14.29476959 -53 18.0625 
                C-62.73955638 34.43911132 -62.73955638 34.43911132 -71 40.0625 
                C-71.66 40.0625 -72.32 40.0625 -73 40.0625 
                C-71.88289099 37.18665441 -70.31170254 35.15595032 -68.21484375 32.93359375 
                C-63.90275013 28.02510501 -61.19812982 22.31219643 -58.23242188 16.53320312 
                C-52.36834693 5.43969339 -45.32171174 -1.547173 -33.625 -6.3125 
                C-21.68209717 -8.37162118 -10.30282528 -6.612261 0 0 Z " fill="#ffffff" transform="translate(593,153.9375)"/>
<!--Eye of dove-->
<path d="M0 0 C2.1875 0 2.1875 0 4 1 
                C3.4375 3.125 3.4375 3.125 2 5 
                C1.01 4.67 0.02 4.34 -1 4 
                C-0.9375 1.875 -0.9375 1.875 0 0 Z " fill="#ffffff" transform="translate(575,166)"/>
<!--Rest of M-->
<path d="M0 0 C2.74203491 -0.3742218 2.74203491 -0.3742218 6.63427734 -0.37231445 
                C7.33997864 -0.37596512 8.04567993 -0.37961578 8.77276611 -0.38337708 
                C11.12739489 -0.39154124 13.48134717 -0.37781157 15.8359375 -0.36328125 
                C17.4710795 -0.36276276 19.10622214 -0.36328002 20.74136353 -0.36479187 
                C24.18330087 -0.36470185 27.62500548 -0.35422268 31.06689453 -0.33618164 
                C35.45585789 -0.31367155 39.8444755 -0.31291466 44.23348045 -0.31969929 
                C47.61893726 -0.323063 51.00431695 -0.31636135 54.38975906 -0.30657005 
                C56.0059023 -0.3027455 57.62205417 -0.30155833 59.23820114 -0.3031559 
                C73.08882996 -0.3054415 86.53981479 0.1245446 97.5 9.75 
                C102.48596623 15.18608818 105.87063061 21.91530026 109.47363281 28.30517578 
                C111.76880112 32.35732994 114.10910573 36.38311617 116.44335938 40.4128418 
                C122.14598009 50.26485425 127.80431709 60.14211656 133.44311523 70.03076172 
                C137.41632688 76.99330435 141.42519885 83.93492745 145.4375 90.875 
                C150.773157 100.10804187 156.05486582 109.36958972 161.29223633 118.65869141 
                C169.51817802 133.24742874 177.84516249 147.77761947 186.25390625 162.26171875 
                C188.18713484 165.59268069 190.11002402 168.92938748 192.02734375 172.26953125 
                C192.52484131 173.13433105 193.02233887 173.99913086 193.53491211 174.89013672 
                C194.48699575 176.54553427 195.43713887 178.20204994 196.38500977 179.85986328 
                C199.28747613 185.22907432 199.28747613 185.22907432 203 190 
                C206.69956212 188.76681263 207.06318499 187.73557095 209.046875 184.4609375 
                C209.63694336 183.49945801 210.22701172 182.53797852 210.83496094 181.54736328 
                C211.78290527 179.97704346 211.78290527 179.97704346 212.75 178.375 
                C214.10212462 176.17062114 215.45634647 173.96752752 216.8125 171.765625 
                C217.15875427 171.20203278 217.50500854 170.63844055 217.86175537 170.05776978 
                C221.38302296 164.34186261 225.05704172 158.73083356 228.75 153.125 
                C233.70145644 145.5908138 238.4995849 137.98866849 243.15820312 130.27050781 
                C245.91265282 125.72546118 248.76997698 121.27503808 251.75 116.875 
                C256.78761258 109.4357586 261.51779523 101.81379289 266.25634766 94.18164062 
                C270.29576278 87.688527 274.42039263 81.26207821 278.625 74.875 
                C283.28557262 67.77115313 287.73554866 60.5618994 292.0625 53.25 
                C292.59891113 52.34491699 293.13532227 51.43983398 293.68798828 50.50732422 
                C296.66807636 45.42609863 299.42983124 40.30058785 302 35 
                C304.54165823 43.95949132 296.3407867 54.45282224 292.03369141 62.17871094 
                C289.17579013 67.21412509 286.08825971 72.10423043 283 77 
                C280.58018129 80.85219409 278.16439532 84.70690478 275.75 88.5625 
                C275.09628418 89.60607666 274.44256836 90.64965332 273.76904297 91.72485352 
                C269.30803983 98.86278922 264.93804984 106.04860424 260.62988281 113.27954102 
                C256.48403293 120.22624994 252.24939791 127.11623547 248 134 
                C241.68460589 144.23485567 235.45100215 154.51443417 229.2890625 164.84228516 
                C227.74331967 167.42964786 226.18914797 170.01186668 224.63427734 172.59375 
                C214.67072684 189.1527624 204.89904751 205.81487552 195.38061523 222.63354492 
                C194.4168396 224.33087769 194.4168396 224.33087769 193.43359375 226.0625 
                C192.86697021 227.06410156 192.30034668 228.06570313 191.71655273 229.09765625 
                C185.95679911 238.83623556 185.95679911 238.83623556 182 240 
                C178.00010597 240.3333245 175.37974326 240.1792167 172 238 
                C170.3515625 235.8046875 170.3515625 235.8046875 168.625 232.875 
                C168.29250244 232.31643311 167.96000488 231.75786621 167.61743164 231.18237305 
                C166.40015763 229.12813917 165.20040848 227.06413329 164 225 
                C162.96527642 223.23802709 161.93008872 221.47632669 160.89453125 219.71484375 
                C152.8197418 205.94684466 144.85799022 192.11283995 136.89111328 178.28222656 
                C133.13758806 171.76758764 129.37901086 165.25586175 125.62084961 158.74389648 
                C122.51761797 153.36617147 119.41653468 147.98723293 116.3203125 142.60546875 
                C109.40736718 130.59569087 102.44428647 118.61721301 95.42459106 106.66964722 
                C90.26429963 97.88556963 85.1450769 89.07930269 80.0625 80.25 
                C76.00056692 73.19570078 71.93752006 66.14265157 67.8125 59.125 
                C67.4311792 58.47619873 67.0498584 57.82739746 66.65698242 57.15893555 
                C64.37202605 53.28628288 62.05506375 49.43410905 59.72265625 45.58984375 
                C59.16666748 44.67122559 58.61067871 43.75260742 58.0378418 42.80615234 
                C56.94830643 41.00844298 55.85485733 39.21309846 54.75708008 37.42041016 
                C54.26747803 36.61265137 53.77787598 35.80489258 53.2734375 34.97265625 
                C52.83435059 34.25343994 52.39526367 33.53422363 51.94287109 32.79321289 
                C51 31 51 31 51 29 
                C50.34 29 49.68 29 49 29 
                C48.80400225 31.67187706 48.75198879 34.24193055 48.77726746 36.91616821 
                C48.77752546 37.76791984 48.77778347 38.61967147 48.77804929 39.49723375 
                C48.78146864 42.38058705 48.79936564 45.26367458 48.81713867 48.14697266 
                C48.8226487 50.20304667 48.82731905 52.25912308 48.83120728 54.31520081 
                C48.84462368 59.92553013 48.87098205 65.53573062 48.90034652 71.14599657 
                C48.92380654 75.82950737 48.94129415 80.51303278 48.95884496 85.19656885 
                C49.00049043 96.25772794 49.05280991 107.31880244 49.11157227 118.37988281 
                C49.17191561 129.77440662 49.21426314 141.16889555 49.24759692 152.5635277 
                C49.27687767 162.34801264 49.31761078 172.13240532 49.36736089 181.91680753 
                C49.39694411 187.75901955 49.422244 193.60116814 49.43648338 199.44343948 
                C49.45039782 204.95101364 49.47870007 210.45833598 49.51768875 215.96578789 
                C49.52960037 217.97880531 49.53659516 219.99185931 49.53809166 222.00491142 
                C48.90477559 242.30022027 48.90477559 242.30022027 57 260 
                C65.10334728 267.73501331 78.31999229 269.35799981 89.15625 269.62890625 
                C89.7646875 269.75136719 90.373125 269.87382812 91 270 
                C91 270.99 91 271.98 91 273 
                C88.26684544 273.3152416 85.75410641 273.40864029 83.01367188 273.38818359 
                C81.74083092 273.39606903 81.74083092 273.39606903 80.442276 273.40411377 
                C77.61758393 273.41739385 74.79344849 273.4085477 71.96875 273.3984375 
                C70.01818737 273.40045594 68.06762547 273.40336544 66.11706543 273.40713501 
                C62.02116743 273.41156922 57.92546517 273.4050922 53.82958984 273.39111328 
                C48.56295952 273.37402077 43.29678773 273.38385611 38.03017426 273.40183067 
                C34.00002549 273.41263901 29.96998656 273.4092358 25.93983459 273.4014473 
                C23.99723762 273.3994371 22.05463086 273.40193303 20.11204529 273.40888596 
                C17.40320178 273.41645225 14.69511484 273.40496493 11.98632812 273.38818359 
                C11.17281387 273.39425629 10.35929962 273.40032898 9.52113342 273.40658569 
                C7.30285645 273.38095093 7.30285645 273.38095093 4 273 
                C4 272.01 4 271.02 4 270 
                C6.83316867 269.5339777 9.51999274 269.25517437 12.375 269.0625 
                C21.68818126 268.20550901 29.37337879 267.22896815 36 260.0625 
                C45.29793794 248.82004139 43.29432672 231.45267924 43.2746582 217.72851562 
                C43.27901313 215.708306 43.28419887 213.68809802 43.29014587 211.66789246 
                C43.30346085 206.21546513 43.30412311 200.76310744 43.30158257 195.31066704 
                C43.30050808 190.7456865 43.30540825 186.18071977 43.310188 181.61574221 
                C43.32125653 170.8416365 43.3217351 160.06756566 43.31567383 149.29345703 
                C43.30963126 138.20474017 43.3219584 127.1161501 43.3432439 116.02745485 
                C43.3608927 106.47971432 43.36685621 96.93201403 43.36360615 87.38425779 
                C43.36179891 81.69370284 43.36437383 76.00323843 43.37832069 70.31269836 
                C43.39094844 64.96096051 43.38890829 59.60941973 43.37590981 54.25768471 
                C43.3735555 52.30226384 43.37623725 50.34682887 43.38453293 48.39142418 
                C43.96611354 28.97419338 43.96611354 28.97419338 36 12 
                C27.92166929 4.93146063 16.05374086 4.56582547 5.79199219 3.82177734 
                C3.515625 3.625 3.515625 3.625 0 3 C0 2.01 0 1.02 0 0 Z " fill="#ffffff" transform="translate(195,197)"/>
<!--Text below the photo-->
<text x="400" y="500" text-anchor="middle" font-family="sans-serif">

  <tspan x="400" dy="0" font-size="24" fill="#ffffff">
    Moly Sur Memorial
  </tspan>

  <tspan x="400" dy="22" font-size="18" fill="#ffffff">
    Photography Contest
  </tspan>

</text>
<!-- LEFT vertical -->
  <line x1="180" y1="100" x2="180" y2="550"
        stroke="#ffffff" stroke-width="2"/>

  <!-- RIGHT vertical -->
  <line x1="640" y1="100" x2="640" y2="550"
        stroke="#ffffff" stroke-width="2"/>

  <!-- BOTTOM -->
  <line x1="180" y1="550" x2="640" y2="550"
        stroke="#ffffff" stroke-width="2"/>

  <!-- TOP LEFT segment -->
  <line x1="180" y1="100" x2="350" y2="100"
        stroke="#ffffff" stroke-width="2"/>

  <!-- TOP RIGHT segment -->
  <line x1="450" y1="100" x2="640" y2="100"
        stroke="#ffffff" stroke-width="2"/>

  <!-- YEAR TEXT (in the gap) -->
  <text x="400" y="107"
        text-anchor="middle"
        font-size="20"
        font-family="sans-serif"
        fill="#ffffff">
    2026
  </text>
</svg>